<svg width="24" height="24" viewBox="0 0 24 24" fill="none" xmlns="http://www.w3.org/2000/svg">
<path d="M4 20C3.45 20 2.97933 19.8043 2.588 19.413C2.19667 19.0217 2.00067 18.5507 2 18V6C2 5.45 2.196 4.97933 2.588 4.588C2.98 4.19667 3.45067 4.00067 4 4H9.175C9.44167 4 9.696 4.05 9.938 4.15C10.18 4.25 10.3923 4.39167 10.575 4.575L12 6H20C20.55 6 21.021 6.196 21.413 6.588C21.805 6.98 22.0007 7.45067 22 8V18C22 18.55 21.8043 19.021 21.413 19.413C21.0217 19.805 20.5507 20.0007 20 20H4ZM4 18H20V8H11.175L9.175 6H4V18ZM14.5 17H16.5C16.9167 17 17.271 16.8543 17.563 16.563C17.855 16.2717 18.0007 15.9173 18 15.5V11.5H18.25C18.4667 11.5 18.646 11.429 18.788 11.287C18.93 11.145 19.0007 10.966 19 10.75C18.9993 10.534 18.9283 10.355 18.787 10.213C18.6457 10.071 18.4667 10 18.25 10H16.5V9.5C16.5 9.36667 16.45 9.25 16.35 9.15C16.25 9.05 16.1333 9 16 9H15C14.8667 9 14.75 9.05 14.65 9.15C14.55 9.25 14.5 9.36667 14.5 9.5V10H12.75C12.5333 10 12.3543 10.071 12.213 10.213C12.0717 10.355 12.0007 10.534 12 10.75C11.9993 10.966 12.0703 11.1453 12.213 11.288C12.3557 11.4307 12.5347 11.5013 12.75 11.5H13V15.5C13 15.9167 13.146 16.271 13.438 16.563C13.73 16.855 14.084 17.0007 14.5 17ZM14.5 11.5H16.5V15.5H14.5V11.5Z" fill="#2B2E3A"/>
</svg>
